# xmcd CD database file
#
# Track frame offsets:
#	150
#	42219
#	92166
#	127574
#	190361
#
# Disc length: 2806 seconds
#
# Revision: 0
# Processed by: cddbd v1.5.2PL0 Copyright (c) Steve Scherf et al.
# Submitted via: CDex 1.70beta2
#
DISCID=360af405
DTITLE=Rodrigo Amado - The Flame Alphabet
DYEAR=2011
DGENRE=Jazz
TTITLE0=Burning Mountain
TTITLE1=The Flame Alphabet
TTITLE2=First Light
TTITLE3=In to the Valley
TTITLE4=The Healing
EXTD=YEAR: 2011
EXTT0=
EXTT1=
EXTT2=
EXTT3=
EXTT4=
PLAYORDER=
